<svg xmlns="http://www.w3.org/2000/svg" width="295.119" height="44.084" viewBox="0 0 295.119 44.084">
    <defs>
        <clipPath id="oa3g4p53fa">
            <path data-name="Rectángulo 10591" style="fill:#264a50;stroke:transparent;stroke-miterlimit:10" d="M0 0h295.119v44.084H0z"/>
        </clipPath>
    </defs>
    <g data-name="Grupo 8906" style="clip-path:url(#oa3g4p53fa)">
        <path data-name="Trazado 768" d="M30.4 33.782v1.45H19.963v-1.45h1.16a1.367 1.367 0 0 0 1.45-1.305 2.922 2.922 0 0 0-.193-1.063c-.628-1.788-2.078-5.994-2.465-7.009H6.719c-1.112 2.32-2.61 5.849-2.61 7.589s.483 2.852 1.209 2.9c0 .242-.822 1.16-2.8 1.16C.241 36.054 0 33.782 0 32.912c0-2.03 1.4-4.737 2.659-7.2 4.544-8.991 8.6-17.353 8.6-20.012 0-2.127-1.4-2.368-1.788-2.417 0-.484.87-1.45 2.659-1.45 3.045 0 4.3 2.562 5.269 5.269.677 1.934 8.652 23.879 8.652 23.879a3.959 3.959 0 0 0 3.142 2.8zM19 21.649c-1.692-4.5-3.287-9.233-4.93-13.728-.822 1.934-2.32 6.236-6.091 13.728z" transform="translate(0 -1.251)" style="fill:#264a50;stroke:transparent;stroke-miterlimit:10"/>
        <path data-name="Trazado 769" d="M115.557 34.82v1.257h-1.112c-1.982 0-2.756.822-2.756 3.577v16.967c0 5.946-3.335 11.117-10.392 11.117-6.526 0-8.8-2.852-8.8-4.544a2.653 2.653 0 0 1 2.562-2.61c0 2.224 2.03 4.979 6.236 4.979 4.737 0 7.251-3.722 7.251-8.652v-11.65c0-4.785-2.562-8.459-7.492-8.459-5.51 0-7.927 4.64-7.927 9.571 0 5.607 3.915 8.846 7.3 8.846a5.936 5.936 0 0 0 4.4-1.5 1.442 1.442 0 0 1 .967 1.4c0 1.306-1.5 2.321-5.269 2.321A10.8 10.8 0 0 1 89.7 46.276c0-6.187 3.819-11.649 11.408-11.649 3.577 0 6.332 1.547 7.444 3.528v-.58c0-2.078 1.4-2.755 3.384-2.755z" transform="translate(-61.273 -23.654)" style="fill:#264a50;stroke:transparent;stroke-miterlimit:10"/>
        <path data-name="Trazado 770" d="M183.279 45.828a3.081 3.081 0 0 1-.58-1.644c0-1.5 2.224-1.5 4.253-1.5h5.9c1.015 0 1.5-.29 1.5-1.305 0-4.06-2.127-7.831-6.864-7.831-5.655 0-8.266 5.317-8.266 10.634 0 4.834 3.093 9.716 7.927 9.716a8.073 8.073 0 0 0 7.589-4.254 2.525 2.525 0 0 1 1.5 1.837c0 2.127-2.755 4.544-9.087 4.544-7.976 0-11.263-6.429-11.263-11.843 0-7.154 3.964-12.761 11.746-12.761a9.518 9.518 0 0 1 9.909 9.909c0 3.529-1.208 3.529-4.109 3.529-7.541 0-8.6 0-10.151.967" transform="translate(-120.149 -21.466)" style="fill:#264a50;stroke:transparent;stroke-miterlimit:10"/>
        <path data-name="Trazado 771" d="M277.931 54.92v1.257h-3.094c-2.61 0-3.673-2.03-3.673-4.3v-10.2c0-4.93-2.127-6.864-5.656-6.864-4.157 0-7.444 3.674-7.444 9.764V52.5c0 1.16.532 2.417 1.885 2.417h.967v1.257h-9.523V54.92h1.257a2.253 2.253 0 0 0 2.224-2.127V37.131c0-1.112-.338-2.61-2.369-2.61h-1.112v-1.16h3.19c2.8 0 3.335 1.643 3.335 3.529a9.444 9.444 0 0 1 8.072-4.4c5.8 0 8.411 3.48 8.411 8.073v11.263a2.839 2.839 0 0 0 2.852 3.094z" transform="translate(-171.731 -22.195)" style="fill:#264a50;stroke:transparent;stroke-miterlimit:10"/>
        <path data-name="Trazado 772" d="M362.266 29.583c0 1.692.821 3.142 2.465 3.142h1.45v1.257H362.6a3.621 3.621 0 0 1-3.673-3.867v-9.088c0-4.834-2.465-8.314-7.347-8.314-5.221 0-7.976 5.027-7.976 10.151s2.948 9.619 7.492 9.619a6.25 6.25 0 0 0 4.592-1.885 2.966 2.966 0 0 1 .725 1.547c0 2.224-4.205 2.369-5.656 2.369-6.139 0-10.586-5.269-10.586-11.746 0-5.559 2.949-12.133 11.408-12.133 3.19 0 6.187 1.305 7.347 3.287V4.205c0-1.208-.1-2.949-2.513-2.949h-1.257V0h3.674c2.61 0 3.432 1.3 3.432 3.867z" transform="translate(-232.381)" style="fill:#264a50;stroke:transparent;stroke-miterlimit:10"/>
        <path data-name="Trazado 773" d="M450.328 54.19v1.257h-2.465c-3.867 0-3.964-2.659-3.964-4.012v-7.4h-3.142c-5.946 0-9.329 1.353-9.329 5.269a4.359 4.359 0 0 0 4.544 4.5 5.422 5.422 0 0 0 4.593-2.175 1.67 1.67 0 0 1 1.015 1.354c0 1.015-.484 2.8-5.752 2.8-3 0-7.782-1.643-7.782-6.526 0-5.945 5.7-7.3 12.761-7.3h3.093v-2.268c0-2.175-.1-6.187-5.462-6.187-4.737 0-6.091 3.239-6.091 5.559a2.425 2.425 0 0 1-2.369-2.562c0-2.949 3.625-5.075 8.459-5.075 5.317 0 8.7 2.03 8.7 8.266v10.875c0 2.272.628 3.625 2.465 3.625z" transform="translate(-292.405 -21.466)" style="fill:#264a50;stroke:transparent;stroke-miterlimit:10"/>
        <path data-name="Trazado 774" d="M537.471 32.667a6.788 6.788 0 0 0-5.816 3.878c-.142-2.034-1.135-3.169-3.168-3.169h-3.357v1.23h1.088c1.229 0 2.317.661 2.317 2.884v14.423c0 .946-.378 2.553-2.128 2.553h-1.277V55.7h9.315v-1.23h-.709c-1.7 0-2.081-1.513-2.081-2.837v-7.759c0-4.871 2.175-9.268 5.627-9.268a2.564 2.564 0 0 1 2.79 2.742 3.443 3.443 0 0 1-.568 1.75 1.329 1.329 0 0 0 1.277.615c1.371 0 2.033-1.419 2.033-2.6 0-2.459-1.466-4.445-5.344-4.445m-24.068.426a9.69 9.69 0 0 0-8.133 4.681v-1.467a2.949 2.949 0 0 0-3.168-2.932h-3.736v1.183h1.324c1.986 0 2.459 1.371 2.459 2.79v24.683c0 .756-.426 2.364-2.034 2.364h-1.087v1.277h10.545V64.4h-1.419a2.721 2.721 0 0 1-2.885-2.884V44.3c0-4.587 3.736-9.079 8.133-9.079 4.587 0 6.526 4.35 6.526 9.788 0 5.485-2.885 9.5-6.668 9.5-3.263 0-4.35-1.986-4.35-1.986a2.075 2.075 0 0 0-.9 1.655c0 1.134 1.276 2.364 5.059 2.364 6.005 0 10.025-6.052 10.025-11.68 0-5.3-1.655-11.774-9.694-11.774" transform="translate(-340.443 -22.315)" style="fill:#264a50;stroke:transparent;stroke-miterlimit:10"/>
        <path data-name="Trazado 775" d="M797.18 35c-1.8 0-2.412-1.324-2.412-3.547V20.811c0-6.1-3.309-8.086-8.511-8.086-4.729 0-8.275 2.081-8.275 4.965a2.372 2.372 0 0 0 2.318 2.51c0-2.27 1.324-5.438 5.958-5.438 5.249 0 5.343 3.925 5.343 6.053v2.223h-3.026c-6.9 0-12.484 1.324-12.484 7.14 0 4.776 4.682 6.384 7.613 6.384 5.154 0 5.627-1.75 5.627-2.742a1.631 1.631 0 0 0-.993-1.325 5.3 5.3 0 0 1-4.492 2.128 4.264 4.264 0 0 1-4.445-4.4c0-3.83 3.31-5.154 9.127-5.154h3.072V32.3c0 1.324.1 3.925 3.878 3.925h2.411V35zm-24.021.048a2.572 2.572 0 0 1-2.554-2.6v-14.8c0-2.317-.709-3.688-3.4-3.688h-3.263v1.229h1.135a2.165 2.165 0 0 1 2.411 2.46v14.8a2.48 2.48 0 0 1-2.553 2.6H763.8v1.229h10.5v-1.234zM771.22 6.152c0-1.277-.946-1.986-2.317-1.986a2.044 2.044 0 0 0-2.27 1.986 2.059 2.059 0 0 0 2.27 1.891c1.276 0 2.317-.663 2.317-1.891m-20.191 7.471A9.69 9.69 0 0 0 742.9 18.3v-1.461a2.949 2.949 0 0 0-3.168-2.932h-3.735v1.182h1.324c1.986 0 2.46 1.371 2.46 2.79v24.684c0 .756-.426 2.364-2.034 2.364h-1.087V46.2h10.54v-1.273h-1.418a2.721 2.721 0 0 1-2.885-2.884V24.83c0-4.587 3.736-9.079 8.133-9.079 4.587 0 6.526 4.35 6.526 9.788 0 5.485-2.885 9.5-6.668 9.5-3.263 0-4.35-1.986-4.35-1.986a2.075 2.075 0 0 0-.9 1.655c0 1.135 1.276 2.364 5.059 2.364 6.005 0 10.025-6.053 10.025-11.68 0-5.3-1.655-11.774-9.694-11.774" transform="translate(-502.771 -2.846)" style="fill:#264a50;stroke:transparent;stroke-miterlimit:10"/>
        <path data-name="Trazado 776" d="M651.314 27.787a16.436 16.436 0 1 0 16.436 16.436 16.436 16.436 0 0 0-16.436-16.436m.373 26.4a9.91 9.91 0 0 1-6.155-2.138l-3.686 1.741 1.682-3.857a9.959 9.959 0 1 1 8.158 4.254" transform="translate(-433.697 -18.982)" style="fill:#264a50;stroke:transparent;stroke-miterlimit:10"/>
    </g>
</svg>
