<svg id="logo_gris" data-name="logo gris" xmlns="http://www.w3.org/2000/svg" xmlns:xlink="http://www.w3.org/1999/xlink" width="188.485" height="28.155" viewBox="0 0 188.485 28.155">
  <defs>
    <clipPath id="clip-path">
      <rect id="Rectangle_1" data-name="Rectangle 1" width="188.485" height="28.155" fill="none"/>
    </clipPath>
  </defs>
  <g id="Group_1" data-name="Group 1" clip-path="url(#clip-path)">
    <path id="Path_1" data-name="Path 1" d="M19.419,22.237v.926H12.75v-.926h.741a.873.873,0,0,0,.926-.834,1.866,1.866,0,0,0-.123-.679c-.4-1.142-1.327-3.828-1.575-4.476H4.291A15.886,15.886,0,0,0,2.624,21.1c0,1.111.309,1.821.772,1.852,0,.154-.525.741-1.791.741C.154,23.688,0,22.237,0,21.682c0-1.3.9-3.025,1.7-4.6C4.6,11.339,7.193,6,7.193,4.3c0-1.358-.9-1.513-1.142-1.544,0-.309.556-.926,1.7-.926,1.945,0,2.748,1.636,3.365,3.365.432,1.235,5.526,15.251,5.526,15.251a2.528,2.528,0,0,0,2.007,1.791Zm-7.286-7.749c-1.081-2.871-2.1-5.9-3.149-8.768C8.459,6.956,7.5,9.7,5.094,14.489Z" transform="translate(0 -1.46)" fill="#fff"/>
    <path id="Path_2" data-name="Path 2" d="M106.213,34.75v.8h-.71c-1.266,0-1.76.525-1.76,2.285V48.674c0,3.8-2.13,7.1-6.637,7.1-4.168,0-5.619-1.821-5.619-2.9a1.7,1.7,0,0,1,1.636-1.667c0,1.42,1.3,3.18,3.983,3.18,3.025,0,4.631-2.377,4.631-5.526v-7.44c0-3.056-1.636-5.4-4.785-5.4-3.519,0-5.063,2.964-5.063,6.113,0,3.581,2.5,5.65,4.662,5.65a3.791,3.791,0,0,0,2.809-.957.921.921,0,0,1,.617.895c0,.834-.957,1.482-3.365,1.482A6.9,6.9,0,0,1,89.7,42.067c0-3.952,2.439-7.44,7.286-7.44a5.346,5.346,0,0,1,4.754,2.254v-.37c0-1.327.9-1.76,2.161-1.76Z" transform="translate(-71.543 -27.619)" fill="#fff"/>
    <path id="Path_3" data-name="Path 3" d="M180.606,40.623a1.968,1.968,0,0,1-.37-1.05c0-.957,1.42-.957,2.717-.957h3.767c.648,0,.957-.185.957-.834,0-2.593-1.358-5-4.384-5-3.612,0-5.279,3.4-5.279,6.792,0,3.087,1.976,6.205,5.063,6.205a5.156,5.156,0,0,0,4.847-2.717,1.613,1.613,0,0,1,.957,1.173c0,1.358-1.76,2.9-5.8,2.9-5.094,0-7.193-4.106-7.193-7.564,0-4.569,2.532-8.15,7.5-8.15a6.079,6.079,0,0,1,6.329,6.329c0,2.254-.772,2.254-2.624,2.254-4.816,0-5.5,0-6.483.617" transform="translate(-140.287 -25.063)" fill="#fff"/>
    <path id="Path_4" data-name="Path 4" d="M268.342,46.816v.8h-1.976c-1.667,0-2.346-1.3-2.346-2.748V38.357c0-3.149-1.358-4.384-3.612-4.384-2.655,0-4.754,2.346-4.754,6.236v5.063c0,.741.34,1.544,1.2,1.544h.617v.8h-6.082v-.8h.8a1.439,1.439,0,0,0,1.42-1.358v-10c0-.71-.216-1.667-1.513-1.667h-.71v-.741h2.038c1.791,0,2.13,1.05,2.13,2.254a6.032,6.032,0,0,1,5.156-2.809c3.7,0,5.372,2.223,5.372,5.156V44.84a1.813,1.813,0,0,0,1.821,1.976Z" transform="translate(-200.515 -25.915)" fill="#fff"/>
    <path id="Path_5" data-name="Path 5" d="M354.285,18.894c0,1.081.525,2.007,1.574,2.007h.926v.8H354.5a2.313,2.313,0,0,1-2.346-2.47v-5.8c0-3.087-1.575-5.31-4.693-5.31-3.334,0-5.094,3.211-5.094,6.483s1.883,6.144,4.785,6.144a3.992,3.992,0,0,0,2.933-1.2,1.894,1.894,0,0,1,.463.988c0,1.42-2.686,1.513-3.612,1.513-3.921,0-6.761-3.365-6.761-7.5,0-3.55,1.883-7.749,7.286-7.749,2.037,0,3.952.834,4.693,2.1V2.686c0-.772-.062-1.883-1.605-1.883h-.8V0h2.346c1.667,0,2.192.833,2.192,2.47Z" transform="translate(-271.33)" fill="#fff"/>
    <path id="Path_6" data-name="Path 6" d="M442.276,45.964v.8H440.7c-2.47,0-2.531-1.7-2.531-2.562V39.481h-2.007c-3.8,0-5.958.864-5.958,3.365a2.784,2.784,0,0,0,2.9,2.871,3.463,3.463,0,0,0,2.933-1.389,1.066,1.066,0,0,1,.648.865c0,.648-.309,1.79-3.674,1.79-1.914,0-4.97-1.049-4.97-4.168,0-3.8,3.643-4.662,8.15-4.662h1.976V36.7c0-1.389-.062-3.952-3.488-3.952-3.026,0-3.89,2.068-3.89,3.55a1.549,1.549,0,0,1-1.513-1.636c0-1.883,2.315-3.242,5.4-3.242,3.4,0,5.557,1.3,5.557,5.279v6.946c0,1.451.4,2.315,1.574,2.315Z" transform="translate(-341.415 -25.063)" fill="#fff"/>
    <path id="Subtraction_1" data-name="Subtraction 1" d="M10.5,20.994A10.5,10.5,0,0,1,3.075,3.075,10.5,10.5,0,0,1,17.92,17.92,10.428,10.428,0,0,1,10.5,20.994ZM6.805,15.5h0a6.3,6.3,0,0,0,3.931,1.366,6.374,6.374,0,1,0-5.211-2.717L4.451,16.607,6.8,15.5Z" transform="translate(128.489 5.624)" fill="#fff" stroke="rgba(0,0,0,0)" stroke-miterlimit="10" stroke-width="1"/>
    <path id="Path_8" data-name="Path 8" d="M523.342,32.667a4.335,4.335,0,0,0-3.715,2.477c-.091-1.3-.725-2.024-2.023-2.024h-2.144v.786h.695c.785,0,1.48.422,1.48,1.842v9.212c0,.6-.242,1.631-1.359,1.631h-.815v.785h5.95v-.785h-.453c-1.087,0-1.329-.966-1.329-1.812V39.825c0-3.111,1.389-5.919,3.594-5.919A1.638,1.638,0,0,1,525,35.657a2.2,2.2,0,0,1-.362,1.118.849.849,0,0,0,.815.393c.876,0,1.3-.906,1.3-1.661,0-1.571-.936-2.839-3.413-2.839m-15.372.272a6.188,6.188,0,0,0-5.195,2.99v-.936a1.883,1.883,0,0,0-2.023-1.873h-2.386v.755h.846c1.269,0,1.571.876,1.571,1.782V51.422c0,.483-.272,1.51-1.3,1.51h-.694v.815h6.735v-.815h-.906a1.738,1.738,0,0,1-1.842-1.842V40.1c0-2.93,2.386-5.8,5.195-5.8,2.929,0,4.168,2.778,4.168,6.251,0,3.5-1.842,6.07-4.259,6.07a3.06,3.06,0,0,1-2.778-1.268,1.325,1.325,0,0,0-.574,1.057c0,.725.815,1.51,3.231,1.51,3.836,0,6.4-3.866,6.4-7.46,0-3.382-1.057-7.52-6.191-7.52" transform="translate(-397.505 -26.056)" fill="#fff"/>
    <path id="Path_9" data-name="Path 9" d="M775.071,23.857c-1.148,0-1.541-.845-1.541-2.265V14.8c0-3.9-2.114-5.164-5.436-5.164-3.02,0-5.285,1.329-5.285,3.171a1.515,1.515,0,0,0,1.48,1.6c0-1.45.845-3.473,3.8-3.473,3.352,0,3.413,2.507,3.413,3.866v1.42h-1.933c-4.409,0-7.973.845-7.973,4.56,0,3.051,2.99,4.077,4.862,4.077,3.292,0,3.594-1.118,3.594-1.751a1.042,1.042,0,0,0-.634-.846,3.388,3.388,0,0,1-2.869,1.359,2.724,2.724,0,0,1-2.839-2.808c0-2.446,2.114-3.292,5.829-3.292h1.963v4.621c0,.845.061,2.507,2.477,2.507h1.54v-.785Zm-15.342.03a1.643,1.643,0,0,1-1.631-1.661V12.773c0-1.48-.453-2.356-2.174-2.356H753.84V11.2h.725a1.383,1.383,0,0,1,1.54,1.571v9.453a1.584,1.584,0,0,1-1.631,1.661h-.725v.785h6.7v-.785ZM758.491,5.435c0-.816-.6-1.269-1.48-1.269a1.306,1.306,0,0,0-1.45,1.269,1.315,1.315,0,0,0,1.45,1.208c.815,0,1.48-.423,1.48-1.208m-12.9,4.771A6.188,6.188,0,0,0,740.4,13.2V12.26a1.883,1.883,0,0,0-2.023-1.873h-2.386v.755h.845c1.269,0,1.571.876,1.571,1.782V28.689c0,.483-.272,1.51-1.3,1.51h-.694v.815h6.735V30.2h-.906a1.738,1.738,0,0,1-1.842-1.842V17.364c0-2.93,2.386-5.8,5.195-5.8,2.93,0,4.168,2.778,4.168,6.251,0,3.5-1.842,6.071-4.259,6.071a3.06,3.06,0,0,1-2.778-1.268,1.325,1.325,0,0,0-.574,1.057c0,.725.815,1.51,3.231,1.51,3.836,0,6.4-3.866,6.4-7.46,0-3.382-1.057-7.52-6.191-7.52" transform="translate(-587.039 -3.323)" fill="#fff"/>
  </g>
</svg>
