<svg id="Layer_1" data-name="Layer 1" xmlns="http://www.w3.org/2000/svg" viewBox="0 0 931.33 139.12"><defs><style>.cls-1{fill:#0099b8;}.cls-2{fill:#00677b;}.cls-3{fill:#a0b4b8;}.cls-4{fill:#fff;}</style></defs><path class="cls-1" d="M112.18,110.05v4.58H79.23v-4.58h3.66c2.9-.15,4.57-2,4.57-4.11a9.19,9.19,0,0,0-.61-3.36c-2-5.64-6.55-18.92-7.78-22.12H37.43c-3.51,7.32-8.24,18.46-8.24,24s1.53,9,3.82,9.15c0,.77-2.6,3.66-8.85,3.66-7.17,0-7.93-7.17-7.93-9.91,0-6.41,4.42-15,8.39-22.73C39,56.21,51.77,29.82,51.77,21.43c0-6.71-4.42-7.48-5.64-7.63,0-1.53,2.74-4.58,8.39-4.58,9.61,0,13.57,8.09,16.62,16.63,2.14,6.1,27.31,75.36,27.31,75.36,2.29,6.25,7.32,8.84,9.91,8.84Zm-36-38.28C70.84,57.58,65.8,42.63,60.62,28.44,58,34.55,53.3,48.12,41.4,71.77Z" transform="translate(-16.23 -7.39)"/><path class="cls-1" d="M187.53,42.63v4H184c-6.26,0-8.7,2.59-8.7,11.28v53.55c0,18.76-10.53,35.08-32.8,35.08-20.59,0-27.76-9-27.76-14.34,0-7.78,8.09-8.23,8.09-8.23,0,7,6.4,15.71,19.67,15.71,14.95,0,22.88-11.75,22.88-27.31V75.58c0-15.1-8.08-26.7-23.64-26.7-17.39,0-25,14.65-25,30.21,0,17.69,12.36,27.91,23,27.91,4,0,9.15-.3,13.88-4.72a4.54,4.54,0,0,1,3.05,4.42c0,4.12-4.73,7.32-16.63,7.32-18.76,0-34.17-14.64-34.17-35.24,0-19.52,12-36.76,36-36.76,11.29,0,20,4.88,23.49,11.14V51.33c0-6.56,4.43-8.7,10.68-8.7Z" transform="translate(-16.23 -7.39)"/><path class="cls-1" d="M215.45,84.27c-1.22-1.22-1.83-4.27-1.83-5.18,0-4.73,7-4.73,13.42-4.73h18.61c3.21,0,4.73-.92,4.73-4.12,0-12.81-6.71-24.71-21.66-24.71-17.85,0-26.08,16.78-26.08,33.56,0,15.25,9.76,30.66,25,30.66,14.95,0,20.75-8.24,23.95-13.42,2.44.91,4.73,4,4.73,5.79,0,6.71-8.69,14.34-28.68,14.34-25.17,0-35.54-20.29-35.54-37.37,0-22.58,12.51-40.27,37.07-40.27,18.15,0,31.27,12.81,31.27,31.27,0,11.13-3.81,11.13-13,11.13-23.79,0-27.15,0-32,3" transform="translate(-16.23 -7.39)"/><path class="cls-1" d="M351.37,110.66v4H341.6c-8.23,0-11.59-6.41-11.59-13.58V68.87c0-15.56-6.71-21.66-17.85-21.66-13.11,0-23.49,11.59-23.49,30.81v25c0,3.66,1.68,7.62,5.95,7.62h3.05v4H267.62v-4h4c2.9,0,7-2.44,7-6.71V54.53c0-3.51-1.06-8.24-7.47-8.24h-3.51V42.63h10.07c8.85,0,10.52,5.19,10.52,11.14,3.82-6.56,13-13.89,25.48-13.89,18.3,0,26.54,11,26.54,25.48V100.9c0,3.66,1.83,9.76,9,9.76Z" transform="translate(-16.23 -7.39)"/><path class="cls-1" d="M426.11,100.75c0,5.34,2.6,9.91,7.78,9.91h4.58v4H427.18c-5.34,0-11.59-3.66-11.59-12.2V73.75c0-15.26-7.78-26.24-23.19-26.24-16.47,0-25.17,15.87-25.17,32s9.31,30.35,23.65,30.35a19.7,19.7,0,0,0,14.49-6s2.29,2.6,2.29,4.88c0,7-13.27,7.48-17.85,7.48-19.37,0-33.41-16.63-33.41-37.07,0-17.54,9.31-38.29,36-38.29,10.07,0,19.53,4.12,23.19,10.38V20.66c0-3.81-.31-9.3-7.93-9.3h-4v-4h11.59c8.24,0,10.83,4.12,10.83,12.21Z" transform="translate(-16.23 -7.39)"/><path class="cls-1" d="M514.59,110.66v4h-7.78c-12.2,0-12.5-8.39-12.5-12.66V78.63h-9.92C465.63,78.63,455,82.9,455,95.26c0,9.91,7.78,14.18,14.34,14.18,10.22,0,14.49-6.86,14.49-6.86a5.26,5.26,0,0,1,3.2,4.27c0,3.2-1.52,8.85-18.15,8.85-9.46,0-24.56-5.19-24.56-20.6,0-18.76,18-23,40.27-23h9.77V64.9c0-6.86-.31-19.52-17.24-19.52-14.95,0-19.22,10.22-19.22,17.54,0,0-7.48-.15-7.48-8.09,0-9.3,11.44-16,26.7-16,16.78,0,27.46,6.4,27.46,26.08V99.22c0,7.17,2,11.44,7.77,11.44Z" transform="translate(-16.23 -7.39)"/><path class="cls-2" d="M754.84,87.05A51.87,51.87,0,1,0,703,138.92a51.87,51.87,0,0,0,51.87-51.87" transform="translate(-16.23 -7.39)"/><path class="cls-3" d="M638,40.06c-7.61,0-15.37,5.52-18.35,12.24-.45-6.42-3.58-10-10-10h-10.6v3.88h3.44c3.88,0,7.31,2.09,7.31,9.1V100.8c0,3-1.2,8-6.72,8h-4v3.88h29.4v-3.88h-2.24c-5.37,0-6.56-4.77-6.56-8.95V75.43c0-15.37,6.86-29.25,17.75-29.25,6.27,0,8.81,4.18,8.81,8.65,0,1.94-1.2,5.08-1.79,5.53,0,0,.89,1.94,4,1.94,4.32,0,6.41-4.48,6.41-8.21,0-7.76-4.62-14-16.86-14m-76,1.34c-11.34,0-20.74,6.72-25.67,14.78V51.55c0-5.52-4.33-9.25-10-9.25H514.59V46h4.18c6.27,0,7.76,4.33,7.76,8.8v77.9c0,2.39-1.34,7.46-6.42,7.46h-3.43v4H550v-4h-4.48c-6.41,0-9.1-4.62-9.1-9.1V76.77c0-14.47,11.79-28.65,25.67-28.65,14.47,0,20.59,13.73,20.59,30.89s-9.1,30-21,30c-10.3,0-13.73-6.26-13.73-6.26A6.55,6.55,0,0,0,545,108c0,3.58,4,7.46,16,7.46,19,0,31.64-19.1,31.64-36.86,0-16.71-5.22-37.16-30.59-37.16" transform="translate(-16.23 -7.39)"/><path class="cls-3" d="M945.31,108.85c-5.67,0-7.61-4.17-7.61-11.19V64.09c0-19.25-10.44-25.52-26.86-25.52-14.92,0-26.11,6.57-26.11,15.67,0,7.76,7.31,7.91,7.31,7.91C892,55,896.22,45,910.84,45c16.57,0,16.86,12.39,16.86,19.11v7h-9.55c-21.78,0-39.39,4.18-39.39,22.53,0,15.08,14.77,20.15,24,20.15,16.27,0,17.76-5.52,17.76-8.66a5.13,5.13,0,0,0-3.13-4.17s-4.18,6.71-14.18,6.71c-6.41,0-14-4.18-14-13.88,0-12.09,10.45-16.26,28.81-16.26h9.69v22.83c0,4.18.3,12.38,12.24,12.38h7.61v-3.88Zm-75.8.15a8.11,8.11,0,0,1-8.06-8.2V54.09c0-7.31-2.24-11.64-10.74-11.64h-10.3v3.88H844c5.22,0,7.61,2.83,7.61,7.76V100.8a7.82,7.82,0,0,1-8.06,8.2H840v3.88h33.13V109Zm-6.12-91.17c0-4-3-6.27-7.31-6.27-3.88,0-7.17,2.24-7.17,6.27,0,3.73,3.44,6,7.17,6,4,0,7.31-2.09,7.31-6M799.67,41.4c-11.34,0-20.74,6.72-25.67,14.78V51.55c0-5.52-4.32-9.25-10-9.25H752.22V46h4.18c6.26,0,7.76,4.33,7.76,8.8v77.9c0,2.39-1.35,7.46-6.42,7.46h-3.43v4h33.27v-4h-4.47c-6.42,0-9.11-4.62-9.11-9.1V76.77c0-14.47,11.8-28.65,25.67-28.65,14.48,0,20.6,13.73,20.6,30.89s-9.11,30-21,30c-10.29,0-13.72-6.26-13.72-6.26a6.55,6.55,0,0,0-2.84,5.22c0,3.58,4,7.46,16,7.46,19,0,31.63-19.1,31.63-36.86,0-16.71-5.22-37.16-30.59-37.16" transform="translate(-16.23 -7.39)"/><path class="cls-4" d="M735.59,87.05a31.44,31.44,0,1,0-57.19,18l-5.3,12.17,11.63-5.5a31.41,31.41,0,0,0,50.86-24.69" transform="translate(-16.23 -7.39)"/></svg>