<svg id="Grupo_8927" data-name="Grupo 8927" xmlns="http://www.w3.org/2000/svg" xmlns:xlink="http://www.w3.org/1999/xlink" width="115.179" height="82.575" viewBox="0 0 115.179 82.575">
  <defs>
    <style>
      .cls-1 {
        fill: none;
      }

      .cls-2 {
        clip-path: url(#clip-path);
      }

      .cls-3 {
        fill: #f1b24a;
      }
    </style>
    <clipPath id="clip-path">
      <rect id="Rectángulo_10595" data-name="Rectángulo 10595" class="cls-1" width="115.179" height="82.575"/>
    </clipPath>
  </defs>
  <g id="Grupo_8926" data-name="Grupo 8926" class="cls-2">
    <path id="Trazado_827" data-name="Trazado 827" class="cls-3" d="M9.742,6.876c0-.853-.024-1.592,0-2.328a2.378,2.378,0,0,1,2.125-2.6A61.083,61.083,0,0,1,34.394.437C43,1.488,50.8,4.461,57.082,10.709c.128.128.278.234.431.362,1.316-1.1,2.56-2.237,3.9-3.249A38.789,38.789,0,0,1,79.585.618a61.375,61.375,0,0,1,23.851,1.369A2.235,2.235,0,0,1,105.325,4.3c.023.411.011.824.014,1.236s0,.809,0,1.352h6.592c2.6,0,3.246.648,3.246,3.261v69.23c0,.3.01.6,0,.9a2.209,2.209,0,0,1-3.329,2,69.18,69.18,0,0,0-22.656-6.506,72.843,72.843,0,0,0-17.944-.156c-4.115.508-8.18,1.422-12.287,2.009a10.83,10.83,0,0,1-3.867-.234,83.76,83.76,0,0,0-28.471-1.639A71.309,71.309,0,0,0,3.58,82.176C1.52,83.166,0,82.128,0,79.721Q0,54.322,0,28.923V10.155C0,7.486.62,6.876,3.33,6.876H9.742m4.493,57.848c14.291-1.441,28.207-1.25,41.054,6.243.022-.241.047-.384.047-.526q-.021-27.086-.069-54.172a2.221,2.221,0,0,0-.6-1.345c-4.731-5.109-10.7-7.934-17.421-9.352a51.911,51.911,0,0,0-16.108-.638c-2.324.238-4.626.7-6.908,1.057Zm45.589,6.254c12.973-7.486,26.844-7.751,41.032-6.251V6.125a56.382,56.382,0,0,0-22.45-.641c-6.8,1.407-12.858,4.15-17.779,9.168a2.685,2.685,0,0,0-.819,2.072q.032,26.46.016,52.92ZM4.554,11.415V76.643c3.262-1.055,6.421-2.232,9.666-3.085a84.532,84.532,0,0,1,9.894-2.011,89.947,89.947,0,0,1,10.19-.77c3.313-.077,6.633.164,10.051.268-.37-.118-.649-.212-.931-.3a53.832,53.832,0,0,0-17.75-2.257c-4.374.182-8.735.644-13.1,1.014a2.27,2.27,0,0,1-2.741-2.22c-.038-.447-.023-.9-.023-1.348q0-26.524,0-53.047V11.415Zm66.1,59.414c.02.127.04.254.059.382a80.366,80.366,0,0,1,20.27.29,82.279,82.279,0,0,1,19.678,5.314V11.438h-5.2V66.217a10.494,10.494,0,0,1-.016,1.123,2.224,2.224,0,0,1-2.407,2.141,9.655,9.655,0,0,1-1.231-.1,79.814,79.814,0,0,0-21.734-.392c-3.165.43-6.281,1.216-9.419,1.84" transform="translate(0 0)"/>
  </g>
</svg>
