<svg xmlns="http://www.w3.org/2000/svg" width="227" height="200.827" viewBox="0 0 227 200.827">
    <defs>
        <clipPath id="8ibv9g8v9a">
            <path data-name="Rectángulo 10548" style="fill:#f2f2f2" d="M0 0h227v200.827H0z"/>
        </clipPath>
    </defs>
    <g data-name="Grupo 8916" style="opacity:.62">
        <g data-name="Grupo 8829" style="clip-path:url(#8ibv9g8v9a)">
            <g data-name="Grupo 8828" style="isolation:isolate">
                <g data-name="Grupo 8827">
                    <g data-name="Grupo 8826" style="clip-path:url(#8ibv9g8v9a)">
                        <path data-name="Trazado 213" d="M3.933 31.682c-5.233 7.432-5.71 18.081 1.433 24.191 7.334 6.27 19.367 5.695 28.134 10.365 14.4 7.674 14.579 26.513 6.93 39.621S19.616 129.05 11.171 141.78c-3.292 4.962-5.879 10.445-6.066 16.173-.384 11.741 9.584 22.241 21.58 27.609s25.781 6.628 39.2 7.8l66.543 5.8c18.869 1.645 38.293 3.25 56.5-1.373s35.137-17.03 37.72-33.392c3.395-21.508-18.4-40.084-41.2-48.846-12.433-4.777-25.941-7.99-36.639-15.289-13.933-9.506-19.479-24.387-17.3-39.411 1.1-7.608 5.537-13.811 7.5-21 1.921-7.054-14.492-7.708-19.181-8.066-9.867-.755-5.348-3.017-4.622-9.505.618-5.549-1.4-10.23-6.188-13.992C101.7 2.535 90.986.135 81.338.005 57.3-.318 17.008 13.127 3.933 31.682" style="fill:#f2f2f2"/>
                    </g>
                </g>
            </g>
        </g>
    </g>
</svg>
