<svg xmlns="http://www.w3.org/2000/svg" width="245.921" height="235.607" viewBox="0 0 245.921 235.607">
    <defs>
        <clipPath id="n6zuw883ba">
            <path data-name="Rectángulo 10546" style="fill:#f2f2f2" d="M0 0h195.68v149.056H0z"/>
        </clipPath>
    </defs>
    <g data-name="Grupo 8915" style="opacity:.62">
        <g data-name="Grupo 8824" style="clip-path:url(#n6zuw883ba)" transform="rotate(36 43.78 134.78)">
            <g data-name="Grupo 8823" style="isolation:isolate">
                <g data-name="Grupo 8822">
                    <g data-name="Grupo 8821" style="clip-path:url(#n6zuw883ba)">
                        <path data-name="Trazado 212" d="M13.807 19.908C9.786 22.433 5.792 25.712 5.189 30c-.823 5.842 4.786 10.642 8.091 15.777a22.288 22.288 0 0 1 2.533 19c-1.551 4.7-4.642 8.874-7.237 13.209C2.2 88.64-1.3 100.849.452 112.767a40.545 40.545 0 0 0 20.962 29.69c12.2 6.475 27.311 6.771 41.6 6.553 16.685-.254 36.029-2.219 44.95-14.5 2.361-3.25 3.734-6.958 5.667-10.416 6.363-11.38 19.2-19.838 33.5-22.077 8.85-1.384 18.236-.55 26.594-3.438A31.891 31.891 0 0 0 191.818 82.1c3.43-7.214 4.2-15.2 3.74-23-.766-12.9-5.093-26.052-14.864-35.778-13.753-13.696-35.627-18.453-56.231-21.441-14.892-2.16-30.977-3.625-44.4 2.4-11.313 5.079-20.476 2.461-32.81 3.99a82.294 82.294 0 0 0-33.446 11.637" style="fill:#f2f2f2"/>
                    </g>
                </g>
            </g>
        </g>
    </g>
</svg>
