<svg data-name="Grupo 8925" xmlns="http://www.w3.org/2000/svg" width="90.765" height="107.543" viewBox="0 0 90.765 107.543">
    <defs>
        <clipPath id="4o1l8phfka">
            <path data-name="Rectángulo 10594" style="fill:#f1b24a" d="M0 0h90.765v107.543H0z"/>
        </clipPath>
    </defs>
    <g data-name="Grupo 8924" style="clip-path:url(#4o1l8phfka)">
        <path data-name="Trazado 821" d="M23.414 42.691c1.589.637 3.183 1.173 4.683 1.9a7.522 7.522 0 0 1 4.129 3.986 20.858 20.858 0 0 1 .635 3.366c1.2.276 2.685.618 4.169.957.409.093.828.151 1.229.271a2.107 2.107 0 1 1-1.048 4.074c-2.221-.483-4.434-1-6.66-1.468a1.562 1.562 0 0 0-1.068.14c-3.854 2.514-8.166 3.171-12.642 3.155a23.768 23.768 0 0 1-10.489-2.2 8.4 8.4 0 0 1-4.595-4.525c-.886-2.378.122-5.091 2.758-6.724A46.594 46.594 0 0 1 10 43.079c.218-.1.454-.156.785-.268-.176-.384-.321-.722-.484-1.051q-4.21-8.447-8.427-16.893A17.1 17.1 0 0 1 17.95.015C30.037.5 37.846 13.682 32.465 24.532q-4.264 8.6-8.572 17.176c-.17.341-.334.684-.479.983m-6.357 3.141c.143-.218.21-.3.256-.393 3.827-7.655 7.675-15.3 11.464-22.971a11.616 11.616 0 0 0 .942-7.874C28.5 9.27 25.23 5.773 19.889 4.554A12.082 12.082 0 0 0 7.066 9.059a12.238 12.238 0 0 0-1.438 13.869c3.04 6.212 6.172 12.38 9.261 18.572l2.168 4.337m.026 9.114c1.322-.117 2.655-.162 3.963-.367a13.55 13.55 0 0 0 6.406-2.395c1.375-1.063 1.38-1.977.027-3.031a12.7 12.7 0 0 0-5.563-2.291 1.07 1.07 0 0 0-.833.507c-.7 1.287-1.332 2.611-1.98 3.926a2.168 2.168 0 0 1-2.031 1.4 2.191 2.191 0 0 1-2.008-1.439c-.626-1.287-1.3-2.55-1.905-3.847A.8.8 0 0 0 12 46.9c-1.371.506-2.778.934-4.1 1.545-.961.444-2.17.98-2.16 2.2.01 1.241 1.2 1.8 2.2 2.313a20.617 20.617 0 0 0 9.144 1.993" style="fill:#f1b24a"/>
        <path data-name="Trazado 822" d="M137.662 146.289c-3.666-1.875-6.711-3.735-6.183-8.279-1.612-.366-3.238-.732-4.864-1.1a7.519 7.519 0 0 1-1.112-.3 2.027 2.027 0 0 1-1.3-2.358 1.88 1.88 0 0 1 2.136-1.59 52.885 52.885 0 0 1 5.746 1.189 4.312 4.312 0 0 0 3.72-.507 19.3 19.3 0 0 1 9.133-2.457c4.417-.259 8.779.132 12.775 2.2a12.373 12.373 0 0 1 3.739 2.944c1.959 2.344 1.52 5.4-.87 7.6-2.494 2.3-5.6 3.229-8.847 3.76a29.316 29.316 0 0 1-9 .1 1.6 1.6 0 0 0-1.158.441c-1.451 1.42-2.845 2.9-4.262 4.352a2.166 2.166 0 0 1-2.563.647 2.083 2.083 0 0 1-.587-3.419 20.767 20.767 0 0 1 1.605-1.661c.539-.5 1.131-.942 1.882-1.56m9.368-2.687a20.626 20.626 0 0 0 9.24-2.017c.957-.515 2.1-1.074 2.108-2.273s-1.134-1.762-2.083-2.289a17.126 17.126 0 0 0-6.932-1.884 20.907 20.907 0 0 0-11.551 1.845c-.988.5-2.188 1.069-2.147 2.347.039 1.243 1.222 1.8 2.213 2.316a20.852 20.852 0 0 0 9.154 1.956" transform="translate(-71.925 -75.775)" style="fill:#f1b24a"/>
        <path data-name="Trazado 823" d="M84.184 209.3c1.384.846 2.44 1.388 3.381 2.086 3.867 2.865 3.856 7.195-.026 10.064a18.124 18.124 0 0 1-8.884 3.176c-5.008.588-9.943.284-14.543-2.008a12.447 12.447 0 0 1-3.413-2.537 5.307 5.307 0 0 1-.026-7.41 11.928 11.928 0 0 1 5.46-3.388 27.382 27.382 0 0 1 12.633-1.09 1.659 1.659 0 0 0 1.652-.539c1.38-1.486 2.8-2.934 4.24-4.367a2.025 2.025 0 0 1 2.585-.427 1.862 1.862 0 0 1 1 2.212 3.145 3.145 0 0 1-.853 1.4c-1 .964-2.079 1.848-3.2 2.832m-9.347 2.796a20.692 20.692 0 0 0-9.027 1.894c-1.043.539-2.339 1.061-2.319 2.44.019 1.312 1.255 1.88 2.288 2.352a22.286 22.286 0 0 0 16.262.764 11.484 11.484 0 0 0 3.06-1.556c1.486-1.018 1.459-2.1.045-3.182a8.167 8.167 0 0 0-1.235-.786 21.1 21.1 0 0 0-9.074-1.926" transform="translate(-34.281 -117.345)" style="fill:#f1b24a"/>
        <path data-name="Trazado 824" d="M136.613 190.384a2.119 2.119 0 0 1-2.124 2.035 2.087 2.087 0 1 1 .1-4.173 2.12 2.12 0 0 1 2.023 2.138" transform="translate(-76.723 -109.046)" style="fill:#f1b24a"/>
        <path data-name="Trazado 825" d="M108.747 132.848a2.1 2.1 0 0 1-2.1 2.04 2.134 2.134 0 0 1-2.038-2.126 2.089 2.089 0 0 1 2.123-2.023 2.042 2.042 0 0 1 2.017 2.109" transform="translate(-60.596 -75.734)" style="fill:#f1b24a"/>
        <path data-name="Trazado 826" d="M37.328 28.715a8.619 8.619 0 0 1-17.239.021 8.619 8.619 0 1 1 17.239-.021m-4.211-.026a4.417 4.417 0 0 0-4.431-4.38 4.484 4.484 0 0 0-4.386 4.459 4.425 4.425 0 0 0 4.464 4.352 4.358 4.358 0 0 0 4.352-4.431" transform="translate(-11.637 -11.643)" style="fill:#f1b24a"/>
    </g>
</svg>
