<svg data-name="Grupo 8923" xmlns="http://www.w3.org/2000/svg" width="93.287" height="93.294" viewBox="0 0 93.287 93.294">
    <defs>
        <clipPath id="6dcldd6y9a">
            <path data-name="Rectángulo 10593" style="fill:none" d="M0 0h93.287v93.294H0z"/>
        </clipPath>
    </defs>
    <g data-name="Enmascarar grupo 8922" style="clip-path:url(#6dcldd6y9a)">
        <path data-name="Trazado 811" d="M0 46.632V6.275C0 2.158 2.167 0 6.3 0h64.715C75.141 0 77.3 2.159 77.3 6.284v18.584c-.018 1.378-.755 2.256-1.864 2.225-1.087-.031-1.782-.873-1.783-2.213q-.009-9.337 0-18.675c0-1.981-.574-2.558-2.547-2.558h-64.9c-1.978 0-2.556.576-2.556 2.55v80.9c0 1.974.578 2.552 2.554 2.552H71.1c1.974 0 2.549-.577 2.549-2.556 0-4.1-.005-8.2 0-12.3 0-1.412.819-2.293 1.976-2.178a1.773 1.773 0 0 1 1.655 1.852c.022 4.555.07 9.111-.029 13.664a5.327 5.327 0 0 1-5 5.13c-.392.037-.789.033-1.184.033H6.261C2.156 93.293 0 91.125 0 86.989V46.632" style="fill:#f1b24a"/>
        <path data-name="Trazado 812" d="M178.715 62.39c7.122-.019 11.19 6.183 7.9 11.78-3.841 6.537-7.593 13.125-11.385 19.69-3.655 6.329-7.3 12.665-10.984 18.975a6.041 6.041 0 0 1-1.555 1.731c-3.518 2.644-7.076 5.235-10.619 7.845a2.117 2.117 0 0 1-2.095.547 1.786 1.786 0 0 1-1.182-2.107c.252-2.566.549-5.127.832-7.69.21-1.9.389-3.8.659-5.694a6.063 6.063 0 0 1 .656-2.139q11.134-19.362 22.32-38.695c1.566-2.715 3.839-4.215 5.453-4.244m-17.1 47.745 18.4-31.863-6.939-4-18.408 31.859 6.944 4.008m20.253-35.014c.711-1.294 1.473-2.464 2.02-3.727a3.887 3.887 0 0 0-1.8-4.9 3.931 3.931 0 0 0-5.107 1.137c-.752 1.086-1.37 2.264-2.085 3.465l6.975 4.025m-28.182 34.657-.843 7.534 6.105-4.5-5.262-3.037" transform="translate(-94.486 -39.622)" style="fill:#f1b24a"/>
        <path data-name="Trazado 813" d="M93.5 43.761A16.771 16.771 0 1 1 76.782 26.97 16.817 16.817 0 0 1 93.5 43.761m-5.876 7.174c3.4-4.4 3.24-12.277-2.354-17.153a13.136 13.136 0 0 0-17.98.861A12.866 12.866 0 0 0 66.249 51.4a13.487 13.487 0 0 1 5.287-4.405 7.646 7.646 0 0 1-1.37-5.251 6.565 6.565 0 0 1 13.134.066 7.753 7.753 0 0 1-1.3 5.119c1.011.671 1.958 1.265 2.866 1.913.944.673 1.851 1.4 2.765 2.094M84.61 54.11a9.126 9.126 0 0 0-15.748-.01c4.071 3.6 11.429 3.611 15.747.013M79.664 42.4h-.031c0-.242.015-.485 0-.726a2.877 2.877 0 0 0-2.58-2.716 2.743 2.743 0 0 0-3.1 2.179 7 7 0 0 0 .012 2.6 2.765 2.765 0 0 0 2.857 2.179 2.917 2.917 0 0 0 2.76-2.339 9.2 9.2 0 0 0 .088-1.174" transform="translate(-38.077 -17.128)" style="fill:#f1b24a"/>
        <path data-name="Trazado 814" d="M71.786 134.806h12.2a6.64 6.64 0 0 1 .818.022 1.806 1.806 0 0 1-.037 3.607 6.439 6.439 0 0 1-.727.018H59.46a6.524 6.524 0 0 1-.727-.017 1.809 1.809 0 0 1 .037-3.616c.271-.027.546-.014.819-.014h12.2" transform="translate(-36.193 -85.61)" style="fill:#f1b24a"/>
        <path data-name="Trazado 815" d="M71.7 166.418H59.5a6.493 6.493 0 0 1-.818-.022 1.806 1.806 0 0 1 .038-3.607 6.358 6.358 0 0 1 .727-.018H84.03a6.624 6.624 0 0 1 .728.017 1.809 1.809 0 0 1-.039 3.616c-.271.026-.546.013-.819.013H71.7" transform="translate(-36.193 -103.37)" style="fill:#f1b24a"/>
        <path data-name="Trazado 816" d="M71.71 194.38q-6.144 0-12.289-.006a3.893 3.893 0 0 1-1.164-.136 1.664 1.664 0 0 1-1.227-1.719 1.647 1.647 0 0 1 1.212-1.639 4.289 4.289 0 0 1 1.255-.142q12.288-.012 24.577 0a5.591 5.591 0 0 1 .817.03 1.8 1.8 0 0 1 .015 3.581 6.115 6.115 0 0 1-.908.034H71.71" transform="translate(-36.218 -121.129)" style="fill:#f1b24a"/>
        <path data-name="Trazado 817" d="M107.663 222.332c-1.515 0-3.03.01-4.545 0-1.315-.011-2.165-.74-2.165-1.821s.851-1.815 2.166-1.82q4.59-.017 9.18 0a1.841 1.841 0 1 1 0 3.639c-1.545.016-3.091 0-4.636 0" transform="translate(-64.113 -138.878)" style="fill:#f1b24a"/>
        <path data-name="Trazado 818" d="M37.425 134.852a1.811 1.811 0 0 1 .08 3.62 1.81 1.81 0 1 1-.08-3.62" transform="translate(-22.643 -85.641)" style="fill:#f1b24a"/>
        <path data-name="Trazado 819" d="M39.257 164.608a1.825 1.825 0 0 1-1.78 1.822 1.811 1.811 0 1 1-.022-3.622 1.827 1.827 0 0 1 1.8 1.8" transform="translate(-22.643 -103.396)" style="fill:#f1b24a"/>
        <path data-name="Trazado 820" d="M37.438 194.387a1.811 1.811 0 1 1 .056-3.621 1.811 1.811 0 0 1-.056 3.621" transform="translate(-22.643 -121.15)" style="fill:#f1b24a"/>
    </g>
</svg>
