<svg data-name="Grupo 8921" xmlns="http://www.w3.org/2000/svg" width="147.312" height="115.168" viewBox="0 0 147.312 115.168">
    <defs>
        <clipPath id="xgv5d5dq7a">
            <path data-name="Rectángulo 10592" style="fill:#f1b24a" d="M0 0h147.312v115.168H0z"/>
        </clipPath>
    </defs>
    <g data-name="Grupo 8920" style="clip-path:url(#xgv5d5dq7a)">
        <path data-name="Trazado 778" d="M122.385 251.047a11.153 11.153 0 0 1-1.538-.241 1.71 1.71 0 0 1-1.291-1.871 1.737 1.737 0 0 1 1.6-1.739 13.476 13.476 0 0 1 2.24-.022 1.846 1.846 0 0 1 1.95 1.765 1.958 1.958 0 0 1-1.835 2.03 9.586 9.586 0 0 1-1.121.007c0 .024-.006.048-.009.072" transform="translate(-65.73 -135.879)" style="fill:#f1b24a"/>
        <path data-name="Trazado 779" d="M79.369 237.681a16.344 16.344 0 0 1 3.231 1.528 2.465 2.465 0 0 1 .511 1.982 1.445 1.445 0 0 1-1.754 1.212 8.175 8.175 0 0 1-2.968-1.174 2.173 2.173 0 0 1-.547-1.938c.181-.615.963-1.053 1.527-1.611" transform="translate(-42.771 -130.679)" style="fill:#f1b24a"/>
        <path data-name="Trazado 780" d="M67.127 16.788c-.09.2-.161.709-.447.9a14.067 14.067 0 0 1-2.892 1.612 1.564 1.564 0 0 1-1.934-.963 1.668 1.668 0 0 1 .424-2.224 9.864 9.864 0 0 1 2.531-1.378 1.873 1.873 0 0 1 2.318 2.057" transform="translate(-33.876 -8.05)" style="fill:#f1b24a"/>
        <path data-name="Trazado 781" d="M143 249.459a1.97 1.97 0 0 1-1.975-1.642 1.855 1.855 0 0 1 1.353-2.055 11.966 11.966 0 0 1 2.309-.4 1.848 1.848 0 0 1 2 1.566 1.875 1.875 0 0 1-1.375 2.144 8.105 8.105 0 0 1-1.1.226c-.4.065-.814.105-1.221.157" transform="translate(-77.526 -134.901)" style="fill:#f1b24a"/>
        <path data-name="Trazado 782" d="M86.736 8.067c0 1.258-.876 1.715-1.877 2.048-1.122.373-2.278.989-3.29-.205a1.826 1.826 0 0 1 .594-2.85 10.055 10.055 0 0 1 2.424-.828 1.81 1.81 0 0 1 2.15 1.835" transform="translate(-44.6 -3.405)" style="fill:#f1b24a"/>
        <path data-name="Trazado 783" d="M100.614 244.666a18.5 18.5 0 0 1 1.948.463 1.78 1.78 0 0 1 1.232 2.107 1.755 1.755 0 0 1-1.919 1.514 10.562 10.562 0 0 1-2.3-.413 1.83 1.83 0 0 1-1.413-2.11c.167-1 .983-1.6 2.451-1.562" transform="translate(-53.956 -134.518)" style="fill:#f1b24a"/>
        <path data-name="Trazado 784" d="M164.22 244.253c-1.174-.086-1.833-.5-2.12-1.386a1.626 1.626 0 0 1 .708-2.052 10.169 10.169 0 0 1 2.824-1 1.851 1.851 0 0 1 1.239 3.332 20.8 20.8 0 0 1-2.652 1.109" transform="translate(-89.064 -131.834)" style="fill:#f1b24a"/>
        <path data-name="Trazado 785" d="M5.479 144.469a2.033 2.033 0 0 1-1.614 2.267 1.715 1.715 0 0 1-2.023-1.213 10.3 10.3 0 0 1-.4-2.746 1.647 1.647 0 0 1 1.6-1.7A1.694 1.694 0 0 1 5 142.233a16.842 16.842 0 0 1 .481 2.236" transform="translate(-.792 -77.552)" style="fill:#f1b24a"/>
        <path data-name="Trazado 786" d="M44.041 29.5c.037-1.339 2.481-3.295 3.794-3.036a1.827 1.827 0 0 1 1.227 2.776 7.979 7.979 0 0 1-2.46 2.047 1.88 1.88 0 0 1-2.561-1.787" transform="translate(-24.214 -14.537)" style="fill:#f1b24a"/>
        <path data-name="Trazado 787" d="M34.057 42.773c.016 1.573-1.843 3.77-3.013 3.737a2.3 2.3 0 0 1-1.654-.853 2.162 2.162 0 0 1-.09-1.846 5.783 5.783 0 0 1 1.8-2.081 2.392 2.392 0 0 1 1.94-.13c.51.2.814.925 1.017 1.178" transform="translate(-16.019 -22.791)" style="fill:#f1b24a"/>
        <path data-name="Trazado 788" d="M12.163 79.235a30.677 30.677 0 0 1-1.294 3.027 1.671 1.671 0 0 1-2.163.688 1.584 1.584 0 0 1-1.2-1.807 10.7 10.7 0 0 1 1.14-2.987 1.46 1.46 0 0 1 2.073-.51 7.592 7.592 0 0 1 1.439 1.589" transform="translate(-4.11 -42.56)" style="fill:#f1b24a"/>
        <path data-name="Trazado 789" d="M187.3 232.791c-.071.167-.127.73-.43.94a12.937 12.937 0 0 1-2.887 1.627 1.58 1.58 0 0 1-1.925-.984 1.679 1.679 0 0 1 .4-2.228 9.6 9.6 0 0 1 2.421-1.363c1.2-.443 2.381.475 2.417 2.008" transform="translate(-99.963 -126.825)" style="fill:#f1b24a"/>
        <path data-name="Trazado 790" d="M8.054 162.022c1.231.04 1.722.883 2.054 1.893.371 1.127.966 2.285-.216 3.294a1.844 1.844 0 0 1-2.857-.592 10.487 10.487 0 0 1-.823-2.425 1.852 1.852 0 0 1 1.842-2.17" transform="translate(-3.395 -89.081)" style="fill:#f1b24a"/>
        <path data-name="Trazado 791" d="M217.781 208.286a1.887 1.887 0 0 1-1.853-2.782 8.731 8.731 0 0 1 1.824-2.085 1.682 1.682 0 0 1 2.344.129 1.634 1.634 0 0 1 .389 2.222c-.728 1.1-1.419 2.308-2.7 2.517" transform="translate(-118.576 -111.613)" style="fill:#f1b24a"/>
        <path data-name="Trazado 792" d="M168.118 7.416a17.741 17.741 0 0 1 2.476 1.114 1.675 1.675 0 0 1 .534 2.29 1.648 1.648 0 0 1-2.029.991 12.977 12.977 0 0 1-2.49-.967 1.674 1.674 0 0 1-.768-2.13c.264-.879.926-1.319 2.277-1.3" transform="translate(-91.122 -4.077)" style="fill:#f1b24a"/>
        <path data-name="Trazado 793" d="M6.074 100.606c-.088.414-.2 1.154-.408 1.863a1.9 1.9 0 0 1-2.121 1.41A1.84 1.84 0 0 1 2 101.867a10.413 10.413 0 0 1 .416-2.3 1.8 1.8 0 0 1 2.157-1.326c.955.166 1.527.94 1.5 2.362" transform="translate(-1.097 -53.996)" style="fill:#f1b24a"/>
        <path data-name="Trazado 794" d="M201.588 223.452c-.257-.2-1-.521-1.234-1.058a2.272 2.272 0 0 1 .159-1.929 5.92 5.92 0 0 1 2.235-1.784 2.226 2.226 0 0 1 1.909.293 2.321 2.321 0 0 1 .613 1.749c-.055 1.02-2.221 2.712-3.683 2.729" transform="translate(-110.078 -120.175)" style="fill:#f1b24a"/>
        <path data-name="Trazado 795" d="M46.3 218.537a1.887 1.887 0 0 1-2.787 1.791 9.194 9.194 0 0 1-2.022-1.735 1.689 1.689 0 0 1 .055-2.431 1.716 1.716 0 0 1 2.423-.289c1 .727 2.191 1.355 2.33 2.662" transform="translate(-22.542 -118.484)" style="fill:#f1b24a"/>
        <path data-name="Trazado 796" d="M31.377 203.211a1.817 1.817 0 0 1-2.75 1.634 7.241 7.241 0 0 1-2.112-2.531 1.85 1.85 0 0 1 2.065-2.474 5 5 0 0 1 2.8 3.371" transform="translate(-14.49 -109.857)" style="fill:#f1b24a"/>
        <path data-name="Trazado 797" d="M17.447 187.278c-1.067 0-1.575-.712-2-1.544-.486-.947-1.255-1.84-.569-3a1.813 1.813 0 0 1 3.025-.264 8.766 8.766 0 0 1 1.315 2.322 1.854 1.854 0 0 1-1.768 2.487" transform="translate(-8.029 -99.941)" style="fill:#f1b24a"/>
        <path data-name="Trazado 798" d="M3.856 122.563a7.01 7.01 0 0 1-.055.974 1.951 1.951 0 0 1-1.939 1.681 1.879 1.879 0 0 1-1.824-1.791 10.722 10.722 0 0 1 .03-2.123 1.939 1.939 0 0 1 1.951-1.793 1.947 1.947 0 0 1 1.836 2.014c.013.261 0 .523 0 1.039" transform="translate(0 -65.707)" style="fill:#f1b24a"/>
        <path data-name="Trazado 799" d="M105.326 1.343c1.378 0 2.146.61 2.281 1.571a1.8 1.8 0 0 1-1.4 2.109 12.353 12.353 0 0 1-2.195.4 1.928 1.928 0 0 1-2.048-1.537 1.854 1.854 0 0 1 1.336-2.168 18.462 18.462 0 0 1 2.022-.375" transform="translate(-56.042 -.738)" style="fill:#f1b24a"/>
        <path data-name="Trazado 800" d="M21.607 60.1c-.5 1.6-.98 2.915-2.194 3.592a2.187 2.187 0 0 1-2-.237 2.271 2.271 0 0 1-.583-1.932 5.082 5.082 0 0 1 1.41-2.355 2.4 2.4 0 0 1 1.986-.446c.572.169.967.937 1.379 1.378" transform="translate(-9.233 -32.252)" style="fill:#f1b24a"/>
        <path data-name="Trazado 801" d="M190.685 19.252a1.9 1.9 0 0 1-2.616 1.9 11 11 0 0 1-2.186-1.341 1.539 1.539 0 0 1-.458-2.1c.354-.536 1.286-1.233 1.69-1.091a15.644 15.644 0 0 1 3.3 1.889c.216.143.222.6.268.743" transform="translate(-101.816 -9.128)" style="fill:#f1b24a"/>
        <path data-name="Trazado 802" d="M147.321 1.938a18.031 18.031 0 0 1 1.813.388 1.861 1.861 0 0 1 1.392 2.232 1.828 1.828 0 0 1-2.07 1.464 11.11 11.11 0 0 1-2.081-.391 1.867 1.867 0 0 1-1.465-2.179c.17-.987.984-1.565 2.412-1.513" transform="translate(-79.655 -1.064)" style="fill:#f1b24a"/>
        <path data-name="Trazado 803" d="M60.422 227.673a21.7 21.7 0 0 1 3.227 2.424 2.092 2.092 0 0 1-.181 1.985 2.234 2.234 0 0 1-1.917.641 5.405 5.405 0 0 1-2.441-1.485 2.361 2.361 0 0 1-.387-2c.187-.565.972-.934 1.7-1.565" transform="translate(-32.244 -125.177)" style="fill:#f1b24a"/>
        <path data-name="Trazado 804" d="M126.2 3.847a6.352 6.352 0 0 1-1.139-.1 1.888 1.888 0 0 1-1.5-1.975 1.782 1.782 0 0 1 1.748-1.73 13.638 13.638 0 0 1 1.908-.016 1.905 1.905 0 0 1 1.977 1.993c-.036 1.11-.827 1.791-2.123 1.827-.187.006-.375 0-.876 0" transform="translate(-67.927)" style="fill:#f1b24a"/>
        <path data-name="Trazado 805" d="M165.83 42.629a60.794 60.794 0 0 1 1.611-6.115c2.523-6.722 7.342-11.34 13.766-14.323a31.961 31.961 0 0 1 34.946 5.788c4.844 4.634 7.5 10.285 7.269 17.082a22.989 22.989 0 0 1-5.922 14.521 3 3 0 0 0-.669 1.446 9.793 9.793 0 0 0 2.628 8.394 1.718 1.718 0 0 1-1.37 3.044 18.486 18.486 0 0 1-11.8-4.632 1.208 1.208 0 0 0-.892-.339 41.674 41.674 0 0 1-9.21 1.612 2.827 2.827 0 0 0-.316.068c-.132.841-.229 1.711-.411 2.562-1.632 7.636-6.17 13.089-12.864 16.836a31.141 31.141 0 0 1-20.473 3.371c-1.823-.279-3.616-.764-5.41-1.209a1.049 1.049 0 0 0-1.093.279 18.233 18.233 0 0 1-11.85 4.686 1.749 1.749 0 0 1-1.845-.98 1.712 1.712 0 0 1 .478-2.028 9.846 9.846 0 0 0 2.659-8.466 2.848 2.848 0 0 0-.633-1.377 22.8 22.8 0 0 1-5.963-15.917c.176-6.535 3.017-11.866 7.787-16.192a31.346 31.346 0 0 1 18.713-8.01c.328-.03.655-.074.865-.1m-18.508 49.2a1.405 1.405 0 0 0 .217-.048 14.652 14.652 0 0 0 6.723-4.075 1.818 1.818 0 0 1 2.09-.58 31.631 31.631 0 0 0 9.147 1.843c7.624.47 14.475-1.51 20.218-6.669 8.911-8 9.169-20.735.6-29.088a25.364 25.364 0 0 0-16.281-7.165c-8.415-.632-15.876 1.74-22.033 7.615a18.608 18.608 0 0 0-6.218 14.316 19.615 19.615 0 0 0 5.4 12.947 2.921 2.921 0 0 1 .835 1.292 20.188 20.188 0 0 1 .39 4.589 36.777 36.777 0 0 1-1.09 5.019m22.109-49.239c.327.054.591.118.858.138a31 31 0 0 1 10.757 2.833 3.911 3.911 0 0 0 1.581.342q12.614.031 25.227.015a6.776 6.776 0 0 1 .829.018 1.652 1.652 0 0 1 .026 3.282 6.189 6.189 0 0 1-.828.021h-20.79c0 .115-.01.149 0 .163a2.7 2.7 0 0 0 .23.235 23.469 23.469 0 0 1 8.421 15.572c.05.47.235.58.7.544a32.654 32.654 0 0 0 8.909-1.794 2.043 2.043 0 0 1 2.325.538 25.285 25.285 0 0 0 3.024 2.436 11.236 11.236 0 0 0 4.122 1.711c-.223-.535-.443-.956-.577-1.4-1.153-3.853-1.527-7.414 1.492-10.9a17.666 17.666 0 0 0 4.043-15.42 19.518 19.518 0 0 0-7.465-11.894c-7.99-6.264-16.968-7.89-26.655-4.975a22.9 22.9 0 0 0-14.183 11.468 17.523 17.523 0 0 0-2.044 7.066" transform="translate(-76.125 -10.645)" style="fill:#f1b24a"/>
        <path data-name="Trazado 806" d="M183.374 137.306h13.518a1.721 1.721 0 0 1 1.9 1.369 1.672 1.672 0 0 1-1.4 1.925 5.509 5.509 0 0 1-.828.025h-26.377c-.221 0-.443.01-.663-.009a1.664 1.664 0 0 1-1.586-1.695 1.635 1.635 0 0 1 1.586-1.6c.883-.041 1.769-.014 2.653-.015h11.2" transform="translate(-92.334 -75.488)" style="fill:#f1b24a"/>
        <path data-name="Trazado 807" d="M194.8 115.194c3.372 0 6.744-.015 10.115.018a2.691 2.691 0 0 1 1.385.4 1.43 1.43 0 0 1 .554 1.691 1.615 1.615 0 0 1-1.351 1.191 4.271 4.271 0 0 1-.745.026h-19.9c-.166 0-.332.006-.5 0a1.672 1.672 0 0 1-1.672-1.695 1.637 1.637 0 0 1 1.664-1.612c1.6-.03 3.206-.01 4.808-.011h5.642" transform="translate(-100.445 -63.332)" style="fill:#f1b24a"/>
        <path data-name="Trazado 808" d="M171.25 116.886a1.656 1.656 0 1 1-1.6-1.674 1.675 1.675 0 0 1 1.6 1.674" transform="translate(-92.334 -63.344)" style="fill:#f1b24a"/>
        <path data-name="Trazado 809" d="M255.917 59.54c-3.344 0-6.688.021-10.032-.023a2.769 2.769 0 0 1-1.5-.511 1.376 1.376 0 0 1-.4-1.655 1.6 1.6 0 0 1 1.41-1.115 10.59 10.59 0 0 1 1.16-.017h19.153c.248 0 .5-.009.746 0a1.672 1.672 0 0 1 1.667 1.616 1.645 1.645 0 0 1-1.671 1.69c-1.547.031-3.1.01-4.643.011h-5.887" transform="translate(-134.082 -30.906)" style="fill:#f1b24a"/>
        <path data-name="Trazado 810" d="M232.469 57.856a1.656 1.656 0 1 1-1.653-1.616 1.674 1.674 0 0 1 1.653 1.616" transform="translate(-125.993 -30.921)" style="fill:#f1b24a"/>
    </g>
</svg>
