<svg data-name="Grupo 8871" xmlns="http://www.w3.org/2000/svg" width="149.391" height="132.548" viewBox="0 0 149.391 132.548">
    <defs>
        <clipPath id="6ghaw3l4ca">
            <path data-name="Rectángulo 10567" style="fill:#e9e9e9" d="M0 0h149.391v132.548H0z"/>
        </clipPath>
    </defs>
    <g data-name="Grupo 8870" style="clip-path:url(#6ghaw3l4ca)">
        <path data-name="Trazado 749" d="M62.946 132.374C40.39 115.775 31.9 92.953 31.164 65.963H67.74c.083-1.1.2-1.891.2-2.682.013-20.185-.011-40.371.056-60.555C68 .717 67.5 0 65.373.008 44.352.078 23.332.047 2.311.053c-.648 0-1.3.1-2.123.167C.137 1.052.053 1.776.052 2.5.042 21.929-.07 41.36.07 60.789c.118 16.284 3.811 31.674 13.451 45.067 11.767 16.348 27.632 25.715 48.051 26.691a10.633 10.633 0 0 0 1.374-.173" style="fill:#e9e9e9"/>
        <path data-name="Trazado 750" d="M144.417 132.369c-22.558-16.644-31.079-39.437-31.664-66.478h36.639V.047h-8.846c-18.78 0-37.561.03-56.341-.046-2.144-.009-2.611.74-2.605 2.731.067 20.019.026 40.039.057 60.058a77.49 77.49 0 0 0 6.629 31.2 65.285 65.285 0 0 0 23.087 28.1 56.519 56.519 0 0 0 30.723 10.4c.614.017 1.231-.061 2.321-.12" style="fill:#e9e9e9"/>
    </g>
</svg>
